# xmcd CD database file
#
# Track frame offsets:
#	187
#	10487
#	51772
#	75767
#	115807
#	130945
#
# Disc length: 2170 seconds
#
# Revision: 2
# Processed by: cddbd v1.5.1PL0 Copyright (c) Steve Scherf et al.
# Submitted via: CD2WAV32(JP) R3.22
#
DISCID=3f087806
DTITLE=Jimmy Smith - Organ Grinder Swing
DYEAR=1965
DGENRE=Jazz
TTITLE0=The Organ Grinder's Swing
TTITLE1=Oh, No, Babe
TTITLE2=Blues for J
TTITLE3=Greensleeves
TTITLE4=I'll Close My Eyes
TTITLE5=Satin Doll
EXTD=
EXTT0=
EXTT1=
EXTT2=
EXTT3=
EXTT4=
EXTT5=
PLAYORDER=
